# xmcd CD database file
#
# Track frame offsets:
#	150
#	14390
#	32699
#	47142
#	65903
#	92317
#	111027
#	142241
#	160410
#	173058
#	195040
#
# Disc length: 2977 seconds
#
# Revision: 0
# Processed by: cddbd v1.4PL0 Copyright (c) Steve Scherf et al.
# Submitted via: CDex 1.51
#
DISCID=8d0b9f0b
DTITLE=Duo Europa - Prima Colazione Continentale
DYEAR=2002
DGENRE=Jazz
TTITLE0=All Of Me
TTITLE1=Volare
TTITLE2=How Deep is Your Love
TTITLE3=Daphne
TTITLE4=Tcai Shukarie
TTITLE5=James
TTITLE6=Pajaduska
TTITLE7=Gelem Gelem
TTITLE8=Minor Swing
TTITLE9=James Bond Theme
TTITLE10=Track11
EXTD=YEAR: 2002
EXTT0=
EXTT1=
EXTT2=
EXTT3=
EXTT4=
EXTT5=
EXTT6=
EXTT7=
EXTT8=
EXTT9=
EXTT10=
PLAYORDER=
